<?xml version="1.0" standalone="no"?>
<!DOCTYPE svg PUBLIC "-//W3C//DTD SVG 20010904//EN"
 "http://www.w3.org/TR/2001/REC-SVG-20010904/DTD/svg10.dtd">
<svg version="1.0" xmlns="http://www.w3.org/2000/svg"
 width="500.000000pt" height="425.000000pt" viewBox="0 0 500.000000 425.000000"
 preserveAspectRatio="xMidYMid meet">

<g transform="translate(0.000000,425.000000) scale(0.100000,-0.100000)"
fill="#000000" stroke="none">
<path d="M1862 4129 c-25 -17 -55 -23 -125 -27 -54 -3 -101 -11 -114 -19 -12
-8 -51 -19 -88 -24 -36 -5 -76 -15 -88 -23 -12 -8 -44 -18 -72 -21 -27 -4 -63
-15 -80 -25 -16 -10 -48 -21 -70 -25 -22 -3 -49 -15 -60 -25 -11 -9 -39 -20
-63 -23 -24 -3 -51 -12 -60 -20 -9 -9 -30 -19 -47 -23 -16 -3 -37 -13 -46 -20
-8 -8 -31 -19 -50 -25 -19 -7 -54 -29 -79 -49 -25 -20 -57 -41 -72 -46 -15 -5
-79 -58 -142 -118 -111 -104 -138 -124 -215 -161 -62 -30 -97 -64 -110 -104
-6 -21 -17 -41 -25 -44 -7 -3 -16 -21 -20 -40 -3 -19 -15 -42 -26 -52 -11 -10
-20 -30 -20 -45 0 -15 -8 -35 -19 -44 -10 -9 -21 -29 -24 -44 -3 -15 -24 -47
-46 -72 -23 -25 -44 -54 -47 -65 -2 -11 -4 -180 -2 -376 3 -326 5 -359 21
-377 10 -10 20 -43 24 -73 3 -30 15 -65 25 -79 10 -14 21 -44 25 -65 6 -41 57
-160 73 -170 4 -3 11 -18 15 -34 3 -16 15 -37 25 -46 10 -9 21 -29 25 -44 7
-31 104 -141 125 -141 8 0 112 -95 230 -210 138 -134 222 -210 236 -210 11 0
35 -11 54 -25 19 -14 42 -25 53 -25 11 0 32 -11 49 -25 16 -14 37 -25 47 -25
10 0 26 -9 36 -20 10 -11 28 -20 41 -20 12 0 36 -11 52 -25 22 -19 41 -25 76
-25 32 0 51 -6 63 -19 17 -18 36 -20 255 -23 227 -3 237 -4 260 -25 21 -20 35
-22 183 -25 149 -3 163 -5 189 -26 27 -21 38 -22 193 -22 162 0 166 -1 195
-25 16 -14 35 -25 42 -25 14 0 116 -104 141 -145 40 -65 429 -455 454 -455 9
0 32 -11 51 -25 19 -14 39 -25 46 -25 6 0 24 -10 39 -22 22 -17 45 -23 111
-26 46 -2 94 -2 108 2 24 6 26 10 26 70 0 50 -4 67 -20 81 -11 10 -20 28 -20
40 0 12 -9 34 -21 48 -11 15 -24 48 -28 74 -5 35 -18 59 -47 91 l-39 44 -5
198 c-5 188 -6 200 -28 230 -19 25 -21 34 -12 46 7 8 18 14 25 14 7 0 23 8 36
19 13 10 41 23 61 30 20 7 41 18 48 26 6 7 23 16 38 20 15 3 43 22 62 40 19
19 53 42 75 51 22 9 67 41 99 71 33 31 76 62 96 70 19 8 42 21 50 28 8 7 27
16 42 21 15 5 71 52 126 104 150 144 177 167 203 175 13 4 44 25 69 46 25 20
61 44 82 52 27 11 38 23 43 46 3 16 16 42 27 56 15 19 22 47 26 98 3 49 11 80
23 96 11 13 19 40 19 60 0 21 11 53 25 76 l24 40 1 289 c0 286 0 290 -22 313
-18 20 -23 39 -26 98 -3 57 -9 78 -23 91 -10 9 -19 27 -19 39 0 11 -11 36 -25
55 -14 19 -25 40 -25 48 0 8 -20 39 -45 68 -25 28 -45 60 -45 70 0 10 -86 103
-199 214 -223 218 -232 226 -269 243 -15 6 -48 28 -73 48 -25 21 -58 41 -75
45 -16 4 -40 15 -53 26 -13 10 -29 18 -35 18 -6 0 -35 18 -64 40 -64 48 -163
96 -216 105 -21 3 -55 15 -75 26 -20 10 -47 19 -61 19 -14 0 -41 9 -61 19 -20
11 -61 24 -92 30 -31 6 -70 17 -86 26 -26 13 -110 15 -633 15 -596 0 -603 -1
-636 -21z m1121 -179 c18 -14 48 -23 94 -27 41 -3 75 -12 87 -22 13 -11 47
-18 116 -22 79 -5 103 -10 125 -27 19 -15 42 -22 71 -22 31 0 51 -7 72 -25 17
-14 41 -25 56 -25 15 0 30 -8 35 -19 6 -10 27 -22 48 -26 20 -4 43 -15 51 -26
7 -11 25 -19 41 -19 16 0 37 -10 50 -24 12 -13 35 -26 51 -29 48 -10 455 -408
467 -457 3 -14 14 -34 23 -45 10 -11 21 -34 24 -51 4 -18 16 -40 27 -50 10 -9
19 -27 19 -39 0 -12 9 -34 21 -49 12 -15 24 -50 28 -81 4 -30 15 -63 24 -73
10 -11 19 -45 23 -93 5 -48 13 -82 26 -98 15 -20 18 -43 18 -161 0 -123 -2
-139 -19 -154 -13 -12 -22 -38 -26 -71 -5 -33 -14 -60 -26 -71 -10 -9 -19 -27
-19 -39 0 -51 -14 -85 -51 -123 -21 -22 -41 -53 -45 -69 -16 -64 -145 -177
-214 -187 -34 -5 -57 -17 -95 -51 -27 -25 -55 -45 -63 -45 -7 0 -52 -31 -98
-70 -47 -38 -91 -70 -98 -70 -7 0 -35 -20 -62 -45 -27 -24 -57 -45 -66 -45 -9
0 -30 -11 -46 -25 -17 -14 -38 -25 -47 -25 -10 0 -41 -20 -70 -44 -28 -25 -64
-48 -79 -52 -15 -3 -60 -39 -100 -79 -64 -64 -75 -80 -90 -136 -10 -35 -18
-77 -18 -94 -1 -33 28 -117 53 -155 18 -27 30 -153 30 -311 0 -117 -12 -135
-72 -111 -22 8 -52 29 -66 46 -14 17 -113 125 -222 240 -169 180 -229 236
-285 267 -35 19 -151 48 -216 53 -45 4 -84 13 -100 24 -22 15 -63 18 -320 22
-278 5 -297 6 -330 26 -19 12 -54 24 -78 27 -24 3 -52 13 -61 21 -11 10 -45
19 -87 23 -38 3 -82 13 -99 23 -16 10 -49 20 -73 24 -23 3 -59 15 -80 26 -20
11 -49 20 -63 20 -15 0 -51 11 -81 25 -29 14 -63 25 -74 25 -12 0 -28 7 -35
16 -8 9 -32 25 -54 35 -22 9 -58 33 -79 53 -22 20 -44 36 -49 36 -5 0 -66 54
-136 121 -69 67 -151 144 -181 173 -52 48 -120 141 -120 163 0 6 -8 21 -19 34
-10 13 -22 35 -26 49 -4 14 -16 36 -26 49 -11 13 -19 39 -19 57 0 18 -11 54
-25 80 l-25 47 0 352 0 351 25 34 c14 19 25 41 25 51 0 9 9 27 19 41 11 13 23
37 26 51 4 15 24 44 45 66 21 21 43 54 49 74 14 41 33 60 84 81 26 10 42 26
52 48 9 23 24 37 49 46 26 10 38 22 46 47 7 21 20 37 35 42 22 7 61 40 219
185 37 34 59 48 81 48 17 0 48 12 70 25 23 14 55 25 76 25 21 0 47 8 62 20 14
11 40 20 59 20 18 0 51 11 73 25 31 19 54 24 100 25 46 0 69 6 100 25 34 20
53 24 119 25 61 0 84 4 99 17 12 12 43 20 92 24 53 4 80 11 100 27 28 22 30
22 525 22 485 0 498 -1 523 -20z"/>
<path d="M2658 3307 c-25 -23 -26 -29 -33 -201 l-7 -177 27 -39 c25 -36 32
-40 71 -40 72 0 100 45 73 117 -6 15 -12 46 -13 68 -2 22 -7 87 -11 145 -4 60
-13 115 -21 128 -19 29 -54 28 -86 -1z"/>
<path d="M1873 3265 c-32 -22 -37 -61 -13 -92 17 -22 20 -40 20 -118 0 -70 4
-96 15 -105 8 -7 19 -29 25 -49 6 -20 23 -51 38 -68 25 -30 29 -32 52 -20 45
23 51 50 48 204 -3 132 -5 144 -26 163 -12 11 -22 32 -22 45 0 48 -88 74 -137
40z"/>
<path d="M3263 2812 c-29 -36 -30 -43 -35 -149 l-4 -111 -41 -48 c-22 -27 -44
-60 -48 -74 -4 -14 -27 -48 -51 -76 -27 -32 -44 -61 -44 -77 0 -14 -4 -36 -9
-49 -11 -29 -108 -128 -125 -128 -6 0 -27 -11 -46 -25 -19 -14 -41 -25 -51
-25 -9 0 -28 -9 -43 -21 -18 -14 -47 -23 -89 -26 -34 -3 -76 -14 -93 -24 -46
-28 -252 -28 -298 0 -21 13 -59 20 -121 24 -51 4 -114 15 -145 26 -30 11 -71
21 -90 21 -21 1 -60 15 -95 36 -33 19 -77 42 -97 52 -48 24 -88 67 -99 107 -5
19 -25 43 -49 61 -22 16 -42 36 -45 45 -9 27 -69 77 -96 80 -38 5 -79 -26 -79
-60 0 -16 6 -34 14 -40 8 -7 18 -25 21 -41 3 -15 15 -36 26 -46 10 -9 19 -22
19 -27 0 -12 66 -114 79 -121 5 -3 12 -21 15 -39 9 -46 139 -182 182 -191 18
-4 40 -16 50 -27 10 -11 30 -19 49 -19 18 0 44 -9 58 -20 15 -12 51 -25 81
-30 30 -5 68 -16 85 -24 46 -24 496 -23 530 1 14 10 56 19 103 23 54 5 84 13
98 25 11 10 45 22 75 26 31 4 66 16 81 28 15 12 34 21 42 21 9 0 36 19 59 42
37 36 43 48 43 84 0 26 6 47 16 55 9 8 25 33 35 56 10 24 23 43 28 43 5 0 14
12 20 28 15 35 52 95 74 120 9 10 17 25 17 32 0 14 65 115 79 124 14 9 25 336
12 369 -16 42 -59 37 -98 -11z"/>
</g>
</svg>
